<svg xmlns="http://www.w3.org/2000/svg" width="1440" height="1024" fill="none" viewBox="0 0 1440 1024"><rect width="1440" height="1024" fill="#fff"/><rect width="112.596" height="65" x="260.436" y="885.049" stroke="#F8BF3C" stroke-opacity=".25" stroke-width="7" rx="23.5" transform="rotate(-22.2383 260.436 885.049)"/><rect width="110.268" height="66.155" x="933.092" y="411.256" stroke="#1A9CD5" stroke-opacity=".25" stroke-width="7" rx="23.5" transform="rotate(-37.524 933.092 411.256)"/><rect width="165" height="94" x="132.043" y="559.713" stroke="#EFA1D9" stroke-opacity=".25" stroke-width="7" rx="23.5" transform="rotate(15 132.043 559.713)"/><rect width="92.814" height="56.356" x="1132.68" y="873.745" stroke="#EFA1D9" stroke-opacity=".25" stroke-width="7" rx="23.5" transform="rotate(-15.6648 1132.68 873.745)"/><rect width="123.863" height="94" x="1244.75" y="544.141" stroke="#92E3A9" stroke-opacity=".25" stroke-width="7" rx="23.5" transform="rotate(34.033 1244.75 544.141)"/><rect width="138.333" height="84.965" x="282.317" y="140.418" stroke="#1A9CD5" stroke-opacity=".25" stroke-width="7" rx="23.5" transform="rotate(22.7804 282.317 140.418)"/><rect width="74.406" height="42.774" x="85.98" y="295.418" stroke="#92E3A9" stroke-opacity=".25" stroke-width="7" rx="21.387" transform="rotate(22.7804 85.9798 295.418)"/><rect width="59.125" height="37.944" x="1258.11" y="286.418" stroke="#F8BF3C" stroke-opacity=".25" stroke-width="7" rx="18.972" transform="rotate(22.7804 1258.11 286.418)"/></svg>